<?xml version="1.0" standalone="no"?>
<!DOCTYPE svg PUBLIC "-//W3C//DTD SVG 20010904//EN"
 "http://www.w3.org/TR/2001/REC-SVG-20010904/DTD/svg10.dtd">
<svg version="1.0" xmlns="http://www.w3.org/2000/svg"
 width="1196.000000pt" height="307.000000pt" viewBox="0 0 1196.000000 307.000000"
 preserveAspectRatio="xMidYMid meet">
<metadata>
Created by potrace 1.16, written by Peter Selinger 2001-2019
</metadata>
<g transform="translate(0.000000,307.000000) scale(0.100000,-0.100000)"
fill="#000000" stroke="none">
<path d="M1921 2571 c-6 -28 -14 -69 -17 -91 -4 -22 -9 -40 -11 -40 -2 0 -25
16 -51 36 -26 19 -48 30 -50 24 -2 -5 3 -30 12 -55 8 -25 12 -45 8 -45 -4 1
-26 5 -49 9 -24 5 -43 6 -43 3 0 -4 19 -25 41 -48 l41 -42 -58 -12 c-88 -18
-94 -26 -33 -40 99 -22 94 -18 65 -49 -36 -38 -33 -44 18 -39 l44 5 -19 -55
c-10 -30 -19 -60 -19 -66 0 -6 24 13 53 42 l53 53 13 -81 c8 -44 17 -80 21
-80 4 0 13 34 20 75 7 41 16 75 20 75 5 0 22 -16 39 -35 17 -19 33 -35 36 -35
3 0 3 23 -1 50 -4 28 -4 50 -1 50 4 0 27 -7 53 -16 25 -8 48 -13 51 -10 3 3
-11 25 -31 50 -20 24 -36 46 -36 49 0 2 36 10 80 17 44 7 80 16 80 20 0 4 -31
13 -69 20 l-70 13 35 42 c19 23 34 45 34 48 0 3 -24 -1 -52 -9 -78 -20 -76
-21 -65 42 5 30 7 58 4 60 -3 3 -22 -6 -43 -20 -21 -14 -40 -24 -42 -22 -2 2
-12 37 -22 76 -10 39 -21 74 -23 77 -3 2 -10 -18 -16 -46z"/>
<path d="M265 2328 c-5 -16 -195 -1199 -195 -1215 0 -10 51 -13 220 -13 121 0
220 3 220 8 0 4 11 120 24 257 14 138 28 288 32 335 l8 85 8 -59 c4 -32 47
-186 95 -342 l87 -284 136 0 135 0 98 308 c54 169 97 316 97 326 0 11 2 17 5
14 3 -2 16 -130 30 -284 14 -153 27 -298 31 -321 l5 -43 430 0 429 0 0 128 1
127 21 -40 c104 -200 352 -281 619 -203 l37 10 8 182 c5 99 9 182 8 184 -1 1
-24 -11 -52 -28 -62 -39 -117 -48 -164 -26 -43 21 -68 63 -68 116 0 35 6 48
35 77 34 34 38 35 95 31 47 -3 70 -11 105 -36 l45 -32 0 180 0 179 -52 17
c-29 8 -105 18 -169 21 -127 6 -197 -7 -274 -53 -57 -33 -129 -110 -164 -174
l-31 -55 0 133 0 132 -215 0 -215 0 -1 -387 -1 -388 -95 573 -96 572 -230 -2
-231 -3 -68 -235 c-37 -129 -76 -275 -86 -323 l-18 -88 -85 323 -84 323 -233
3 c-181 2 -233 0 -237 -10z"/>
<path d="M5008 2329 c-82 -19 -196 -72 -258 -118 -173 -131 -254 -357 -180
-501 43 -84 131 -134 291 -165 46 -8 93 -22 106 -30 28 -19 30 -48 3 -75 -60
-60 -228 -29 -335 63 -35 30 -40 41 -51 105 -30 179 -133 293 -324 358 -86 29
-311 27 -401 -4 -77 -26 -149 -69 -201 -120 l-38 -36 0 93 0 94 -72 -5 c-86
-6 -139 -30 -189 -85 l-35 -39 4 53 4 53 -216 0 -216 0 0 -435 0 -435 215 0
215 0 0 178 c0 97 5 195 11 216 20 73 99 123 170 109 28 -5 29 -7 29 -72 0
-129 41 -224 133 -307 100 -92 227 -136 392 -137 119 0 192 15 281 58 l65 32
82 -33 c118 -47 232 -68 367 -68 137 0 209 17 328 75 169 83 271 227 280 396
l5 83 28 0 c25 0 29 -3 24 -22 -6 -30 -85 -491 -85 -501 0 -4 98 -6 217 -5
l217 3 40 260 41 260 68 3 c66 3 67 2 62 -20 -3 -13 -21 -124 -40 -248 -19
-124 -37 -235 -40 -248 l-5 -22 217 2 217 3 27 177 c15 97 30 187 34 200 20
65 102 127 169 128 16 0 48 -9 70 -20 l41 -19 1 -113 c0 -144 23 -209 98 -285
40 -40 64 -55 110 -68 114 -33 232 -6 329 77 l48 40 -7 -29 c-4 -15 -11 -38
-15 -51 -5 -13 -9 -25 -9 -28 0 -2 96 -4 213 -4 l213 0 38 248 c22 136 41 254
44 264 3 14 68 36 77 26 2 -2 -14 -113 -36 -248 -21 -135 -39 -255 -39 -267
l0 -23 214 0 214 0 10 57 c5 32 25 154 43 271 l33 212 25 0 c47 0 52 -10 35
-75 -22 -83 -15 -204 15 -267 66 -138 216 -212 426 -212 127 0 206 17 311 69
106 52 205 148 228 223 l7 22 -206 0 -206 0 -30 -35 c-25 -28 -38 -35 -68 -35
-55 0 -90 47 -75 104 l6 26 293 0 292 0 6 -52 c23 -225 202 -353 407 -292 61
18 91 35 139 78 l33 31 -7 -35 c-12 -65 -58 -143 -103 -174 -35 -25 -55 -31
-112 -34 -84 -5 -186 23 -248 68 -23 16 -44 30 -47 30 -2 0 -36 -66 -75 -147
-53 -110 -67 -149 -58 -155 26 -16 171 -58 241 -69 92 -14 303 -6 382 15 149
40 286 134 357 246 46 72 64 150 128 554 33 209 61 381 63 382 7 8 219 -687
213 -701 -3 -10 -65 -107 -137 -218 -72 -110 -133 -206 -136 -214 -4 -11 34
-13 222 -11 l228 3 364 595 c200 327 368 603 374 613 9 16 -4 17 -219 17
l-228 0 -77 -177 c-42 -98 -86 -203 -96 -233 l-20 -55 0 55 c0 30 -11 135 -23
233 l-23 177 -421 0 -422 0 -6 -22 c-3 -13 -6 -40 -6 -61 l0 -39 -33 44 c-49
65 -113 93 -213 93 -73 0 -88 -4 -156 -38 -91 -45 -168 -122 -219 -221 -34
-66 -49 -81 -49 -48 0 34 -50 122 -93 166 -92 91 -217 131 -387 123 -167 -7
-297 -62 -398 -166 l-39 -40 13 72 c23 126 26 121 -57 113 -65 -7 -70 -6 -66
11 3 10 13 68 22 128 9 61 18 118 21 128 5 16 -10 17 -214 17 l-220 0 -5 -32
c-3 -18 -14 -82 -23 -143 l-17 -110 -249 3 -248 4 0 -53 0 -54 -30 37 c-83
100 -266 115 -408 32 -64 -38 -140 -118 -180 -189 -18 -33 -30 -49 -27 -35 2
14 12 68 20 120 9 52 18 108 21 124 l6 29 -73 -5 c-88 -6 -150 -31 -209 -84
l-43 -39 7 30 c4 17 10 40 13 53 l5 22 -281 0 -282 0 5 33 c3 17 13 73 21 122
8 50 15 100 15 113 l0 22 -213 0 -213 0 -23 -145 -24 -145 -52 0 -53 0 -18
-120 -18 -120 -41 39 c-52 51 -119 83 -230 110 -158 38 -175 52 -126 102 25
25 37 29 83 29 70 0 112 -13 182 -55 33 -19 60 -34 61 -33 24 31 165 313 162
323 -8 20 -123 72 -198 90 -70 16 -259 19 -321 4z m4003 -598 c17 -17 29 -40
29 -55 l0 -26 -99 0 -100 0 10 30 c15 41 64 80 101 80 19 0 39 -10 59 -29z
m1014 -86 c49 -48 29 -157 -35 -190 -105 -54 -186 35 -130 145 36 70 118 93
165 45z m-5868 -28 c49 -49 39 -153 -18 -182 -49 -26 -97 -19 -135 19 -39 39
-45 86 -19 136 32 63 123 77 172 27z m3226 13 c34 -27 42 -68 21 -119 -45
-112 -173 -124 -199 -18 -5 18 -1 44 10 73 29 77 112 108 168 64z"/>
<path d="M11701 1966 c-89 -49 -53 -186 49 -186 54 0 79 14 96 55 38 92 -58
179 -145 131z"/>
</g>
</svg>
