<?xml version="1.0" encoding="utf-8"?>
<!-- Generator: Adobe Illustrator 19.2.1, SVG Export Plug-In . SVG Version: 6.00 Build 0)  -->
<svg version="1.1" id="layer" xmlns="http://www.w3.org/2000/svg" xmlns:xlink="http://www.w3.org/1999/xlink" x="0px" y="0px"
	 viewBox="0 0 652 652" style="enable-background:new 0 0 652 652;" xml:space="preserve">
<style type="text/css">
	.st0{fill:#DF3741;}
</style>
<g>
	<g>
		<path class="st0" d="M123,290l8.6-1.7l-7.2-1.6l3.8-4.6l-6.7,1.7l1.2-6.6l-4.6,3.1l-2.2-8.5l-1.9,9.7l-5.5-4.3l1.8,5.9l-5.3-1
			l4.6,4.8l-7.6,1.6l7.7,1.7l-3.1,3.5l4.8-0.4l-2.2,6.5l5.3-5.4l1.6,8.6l1.7-8.6l4.1,4.3l-0.5-5.4l5.9,2L123,290z M120,287.7
			c0,2-1.6,3.6-3.6,3.6c-2,0-3.6-1.6-3.6-3.6s1.6-3.6,3.6-3.6C118.4,284.1,120,285.7,120,287.7z"/>
		<g>
			<path class="st0" d="M614.9,307h1.3c0.8,0,1.1,0.5,1.1,0.8c0,0.5-0.2,0.8-1.1,0.8h-1.3V307z M616.1,309.6c0.4,0,0.6,0,0.8,0.2
				c0.2,0.2,0.2,0.7,0.4,1.3c0,0.4,0.1,0.7,0.2,1.1h0.8c-0.2-0.6-0.2-1.2-0.4-1.7c-0.1-0.6-0.2-1-0.8-1.2l0,0
				c0.7-0.1,1.1-0.7,1.1-1.4c0-1.2-1-1.4-1.9-1.4h-2v5.8h0.8v-2.6C615.1,309.6,616.1,309.6,616.1,309.6z"/>
			<path class="st0" d="M620.2,309.2c0,2.3-1.9,4.2-4.2,4.2c-2.3,0-4.2-1.9-4.2-4.2c0-2.3,1.9-4.2,4.2-4.2
				C618.2,305.1,620.2,306.9,620.2,309.2z M616,304.3c-2.8,0-5,2.3-5,5c0,2.8,2.3,5,5,5s5-2.3,5-5C621,306.4,618.7,304.3,616,304.3z
				"/>
		</g>
		<path class="st0" d="M72.4,286.2l-7.1,24.6c-0.7,2.6-1.2,5.5-1.6,8.3h-0.6l-8.6-32.9H31.1L21,348.7h22l2.6-26.8
			c0.2-2.5,0.4-5,0.6-7.6h0.7c0.1,2.6,0.7,5.2,1.4,7.8l8.2,26.5h13.3l9-28.1c0.7-2,1.1-4.2,1.4-6.2h0.4l3.1,34.3h22l-10.3-62.5H72.4
			z"/>
		<path class="st0" d="M127.3,320v-15.4h-21.5v44h21.4V334c2.9,10.2,11.8,15.6,23.5,15.6c3.7,0,7.4-1,10.8-2l1-18.1
			c-2.5,1.8-4.9,3.4-8.3,3.4c-3.5,0-6.4-2.8-6.4-6.4c0-4,2.8-6.6,6.7-6.6c3.1,0,5.6,1.8,7.9,3.6v-17.6c-4.3-1.4-9-2.3-13.4-2.3
			C138.4,303.6,130,310.4,127.3,320z"/>
		<path class="st0" d="M587.8,303.8l-7.6,17.3l-2.2,6.7h-0.6l-0.1-6.7l-2.2-17.3h-22h-1.1h-19.6l-0.4,6.4h-0.6
			c-2.2-4.7-6.1-7.3-11.8-7.3c-10.7,0-18.6,9.2-21.6,18.8c-1.1-11.4-10.6-18-23.4-18c-9.6,0-18.7,4.3-24.1,11.8l1.7-10.6l-7.2,0.4
			l2.3-14.8h-21.6l-2.4,14.8L419,305v-0.2h-21l-0.1,5.3h-0.5c-2.5-4.3-6.6-6.2-11.9-6.2c-10.4,0-18.1,8.4-21.4,17.8l2.8-17.4
			c-7.2-0.1-11.3,1.1-16,6.8h-0.5l1.4-5.9h-21.4l0,0l-7.3,0.4l2.3-14.8H304l-2.4,14.8l-5.2-0.4l-2.2,13.4c-2.2-4.4-6.7-7-12.7-8.3
			l-4.9-1.2c-1.7-0.4-4.4-0.7-4.1-3.1c0.4-2.5,3.5-3.4,5.4-3.4c4.9,0,9,2,12.5,4.7l8.6-16c-5.5-3.7-11.9-5.5-19-5.5
			c-13.6,0-28.4,8.3-30.8,23.2c-1.6,9.8,5,15,13.7,16.6l4.4,0.8c2,0.4,4.9,0.7,4.6,3.5c-0.5,2.8-4.2,3.7-6.4,3.7
			c-5.3,0-9.7-2.5-13.3-5.8c0,0-0.5-0.5-1.2-1.2c-0.4-15-12.4-22.9-26.6-22.9c-9.5,0-17.9,3.5-22.7,10.2v-10.2
			c-7.2-0.1-11.2,1.1-14.9,6.8h-0.5l0.5-5.9h-21.4v44h21.4v-16.9c0-5.5,2.9-8.8,8.4-8.8c1.1,0,1.9,0.2,2.8,0.5
			c-0.1,1.2-0.2,2.4-0.2,3.7c0,14.6,13,22.4,26.8,22.4c6.4,0,12.6-1.7,17.4-5c6.5,3.5,15.1,5.6,22.9,5.6c13.6,0,28.3-7.4,30.7-22.3
			c0.4-2.4,0.4-4.4,0-6.2l3.7-0.2l-4.7,27.4h21.6l4.3-27.4l7.2,0.5l-4.3,27.1h21.4l2.6-16.9c0.8-5.5,4.2-8.8,9.7-8.8
			c2.5,0,4,1,5.8,2.2c-0.1,0.5-0.2,1-0.2,1.4c-1.7,10.7,3,22.8,15,22.8c6,0,10-2.6,14.5-6.8h0.5l-1.6,5.8h21l4.3-27.1l4.6-0.4
			l-4.3,27.5h21.6l4.3-27.4l4.7,0.2c-0.7,1.8-1.2,3.7-1.6,5.8c-2.4,15.2,9.1,22.3,23,22.3c10.1,0,22.8-4.9,27.2-15.5h-20.9
			c-0.7,2-2.6,3.6-4.9,3.6c-4.4,0-4.4-4-3.8-7.6h30.5c0,9.6,5.2,18.6,15.6,18.6c5,0,11.2-2.5,14-7.3h0.6l-1.1,4.4
			c-1.3,5.5-5.5,9.7-11.3,9.7c-5.3,0-11-1.9-14.6-5.4l-7.1,14.9l2,0.7c5.9,2.3,11.5,3.5,18.4,3.5c15.4,0,30.6-7,33.2-24.1l6.2-39.1
			l11.8,37.3L549.7,366h22.6l38-62.3L587.8,303.8L587.8,303.8z M225.2,333.1c-3.4,0-6-2.5-6-6c0-3.6,2.4-6.5,6-6.5
			c3.6,0,6,2.9,6,6.5C231.2,330.6,228.6,333.1,225.2,333.1z M395.3,326.4c-0.5,3.4-2.8,6.6-6.7,6.6c-3.8,0-5-3-4.6-6.5
			c0.5-3.2,3.1-6,6.5-6C393.8,320.5,395.8,322.9,395.3,326.4z M478.1,321.1v0.2l0,0l0,0h-0.2h-10.1h-0.4V321
			c0.5-3.2,2.4-5.4,4.9-5.9c0.4-0.1,0.7-0.1,1.1-0.1c1.4,0,2.6,0.6,3.5,1.6C478,317.7,478.4,319.3,478.1,321.1z M529.7,325.9
			c-0.5,3.4-2.8,6.1-6.4,6.1c-3.7,0-5.6-2.6-5-6.2c0.6-3.5,3.4-6.4,6.8-6.4C528.7,319.5,530.2,322.6,529.7,325.9z"/>
	</g>
</g>
</svg>
